<svg width="167" height="48" viewBox="0 0 167 48" fill="none" xmlns="http://www.w3.org/2000/svg">
<path d="M165.231 42.4643C165.231 45.0223 163.116 47.0943 160.499 47.0943H5.66072C3.0457 47.0943 0.923088 45.0223 0.923088 42.4643V5.54169C0.923088 2.98492 3.0457 0.905655 5.66072 0.905655H160.498C163.116 0.905655 165.23 2.98492 165.23 5.54169L165.231 42.4643Z" fill="black"/>
<path d="M160 0.961497C162.849 0.961497 165.168 3.222 165.168 6V42C165.168 44.778 162.849 47.0385 160 47.0385H6.15385C3.30462 47.0385 0.986161 44.778 0.986161 42V6C0.986161 3.222 3.30462 0.961497 6.15385 0.961497H160ZM160 -1.27793e-06H6.15385C2.77078 -1.27793e-06 7.62939e-06 2.7015 7.62939e-06 6V42C7.62939e-06 45.2985 2.77078 48 6.15385 48H160C163.383 48 166.154 45.2985 166.154 42V6C166.154 2.7015 163.383 -1.27793e-06 160 -1.27793e-06Z" fill="#A6A6A6"/>
<path d="M37.0806 23.7408C37.0449 19.8732 40.3286 17.9916 40.4788 17.904C38.6191 15.2604 35.7366 14.8992 34.7237 14.8704C32.3028 14.622 29.9545 16.2828 28.7212 16.2828C27.4634 16.2828 25.5643 14.8944 23.5176 14.9352C20.8837 14.9748 18.4197 16.4616 17.0683 18.7704C14.2794 23.478 16.3594 30.396 19.0314 34.2012C20.368 36.0648 21.9299 38.1456 23.9742 38.0724C25.9742 37.992 26.7212 36.8292 29.1348 36.8292C31.5262 36.8292 32.2277 38.0724 34.3126 38.0256C36.4591 37.992 37.8105 36.1536 39.1003 34.2732C40.6449 32.1372 41.2652 30.0336 41.2899 29.9256C41.2394 29.9088 37.1212 28.3764 37.0806 23.7408Z" fill="white"/>
<path d="M33.1422 12.3672C34.2179 11.0556 34.9539 9.27118 34.7495 7.46038C33.1926 7.52758 31.2455 8.51038 30.1243 9.79318C29.1323 10.9236 28.2462 12.7764 28.4751 14.5188C30.224 14.646 32.0197 13.6584 33.1422 12.3672Z" fill="white"/>
<path d="M66.0246 37.8048H63.2295L61.6984 33.114H56.3766L54.9181 37.8048H52.1969L57.4695 21.8352H60.7261L66.0246 37.8048ZM61.2369 31.146L59.8523 26.976C59.7058 26.55 59.4314 25.5468 59.0264 23.9676H58.9772C58.816 24.6468 58.5563 25.65 58.1994 26.976L56.8394 31.146H61.2369V31.146Z" fill="white"/>
<path d="M79.584 31.9056C79.584 33.864 79.0412 35.412 77.9557 36.5484C76.9834 37.56 75.776 38.0652 74.3347 38.0652C72.7791 38.0652 71.6615 37.5204 70.9809 36.4308H70.9317V42.4968H68.3077V30.0804C68.3077 28.8492 68.2744 27.5856 68.2104 26.2896H70.5181L70.6646 28.1148H70.7138C71.5889 26.7396 72.9169 26.0532 74.6991 26.0532C76.0923 26.0532 77.2554 26.5896 78.1858 27.6636C79.1187 28.7388 79.584 30.1524 79.584 31.9056ZM76.9108 31.9992C76.9108 30.8784 76.6523 29.9544 76.1329 29.2272C75.5655 28.4688 74.8037 28.0896 73.8486 28.0896C73.2012 28.0896 72.6129 28.3008 72.0874 28.7172C71.5606 29.1372 71.216 29.6856 71.0547 30.3648C70.9735 30.6816 70.9329 30.9408 70.9329 31.1448V33.0648C70.9329 33.9024 71.1963 34.6092 71.7231 35.1864C72.2498 35.7636 72.9341 36.0516 73.776 36.0516C74.7643 36.0516 75.5335 35.6796 76.0837 34.938C76.6351 34.1952 76.9108 33.216 76.9108 31.9992Z" fill="white"/>
<path d="M93.168 31.9056C93.168 33.864 92.6252 35.412 91.5385 36.5484C90.5674 37.56 89.36 38.0652 87.9188 38.0652C86.3631 38.0652 85.2455 37.5204 84.5662 36.4308H84.5169V42.4968H81.8929V30.0804C81.8929 28.8492 81.8597 27.5856 81.7957 26.2896H84.1034L84.2499 28.1148H84.2991C85.1729 26.7396 86.5009 26.0532 88.2843 26.0532C89.6763 26.0532 90.8394 26.5896 91.7723 27.6636C92.7015 28.7388 93.168 30.1524 93.168 31.9056ZM90.4948 31.9992C90.4948 30.8784 90.2351 29.9544 89.7157 29.2272C89.1483 28.4688 88.3889 28.0896 87.4326 28.0896C86.784 28.0896 86.1969 28.3008 85.6702 28.7172C85.1434 29.1372 84.8 29.6856 84.6388 30.3648C84.5588 30.6816 84.5169 30.9408 84.5169 31.1448V33.0648C84.5169 33.9024 84.7803 34.6092 85.3046 35.1864C85.8314 35.7624 86.5157 36.0516 87.36 36.0516C88.3483 36.0516 89.1175 35.6796 89.6677 34.938C90.2191 34.1952 90.4948 33.216 90.4948 31.9992Z" fill="white"/>
<path d="M108.356 33.3264C108.356 34.6848 107.872 35.79 106.901 36.6432C105.834 37.5756 104.348 38.0412 102.439 38.0412C100.677 38.0412 99.264 37.71 98.1944 37.0464L98.8024 34.914C99.9544 35.5932 101.218 35.934 102.596 35.934C103.584 35.934 104.353 35.7156 104.906 35.2812C105.456 34.8468 105.73 34.2636 105.73 33.5364C105.73 32.8884 105.504 32.3424 105.05 31.8996C104.598 31.4568 103.844 31.0452 102.79 30.6648C99.9224 29.622 98.4898 28.0944 98.4898 26.0856C98.4898 24.7728 98.992 23.6964 99.9975 22.8588C100.999 22.02 102.336 21.6012 104.007 21.6012C105.498 21.6012 106.736 21.8544 107.724 22.3596L107.068 24.4452C106.145 23.9556 105.102 23.7108 103.934 23.7108C103.01 23.7108 102.289 23.9328 101.772 24.3744C101.335 24.7692 101.116 25.2504 101.116 25.8204C101.116 26.4516 101.366 26.9736 101.868 27.384C102.305 27.7632 103.099 28.1736 104.251 28.6164C105.66 29.1696 106.695 29.8164 107.361 30.558C108.025 31.2972 108.356 32.2224 108.356 33.3264Z" fill="white"/>
<path d="M117.031 28.2096H114.139V33.8004C114.139 35.2224 114.649 35.9328 115.67 35.9328C116.139 35.9328 116.528 35.8932 116.836 35.814L116.908 37.7568C116.391 37.9452 115.711 38.04 114.868 38.04C113.831 38.04 113.022 37.7316 112.437 37.116C111.855 36.4992 111.562 35.4648 111.562 34.0116V28.2072H109.839V26.2872H111.562V24.1788L114.139 23.4204V26.2872H117.031V28.2096Z" fill="white"/>
<path d="M130.081 31.9524C130.081 33.7224 129.562 35.1756 128.526 36.312C127.439 37.482 125.996 38.0652 124.198 38.0652C122.465 38.0652 121.086 37.5048 120.057 36.384C119.028 35.2632 118.513 33.8484 118.513 32.1432C118.513 30.3588 119.042 28.8972 120.105 27.7608C121.164 26.6232 122.594 26.0544 124.393 26.0544C126.126 26.0544 127.52 26.6148 128.572 27.7368C129.579 28.8252 130.081 30.2304 130.081 31.9524ZM127.359 32.0352C127.359 30.9732 127.126 30.0624 126.655 29.3028C126.105 28.3836 125.318 27.9252 124.299 27.9252C123.244 27.9252 122.443 28.3848 121.893 29.3028C121.422 30.0636 121.189 30.9888 121.189 32.0832C121.189 33.1452 121.422 34.056 121.893 34.8144C122.46 35.7336 123.253 36.192 124.276 36.192C125.278 36.192 126.064 35.724 126.631 34.7904C127.115 34.0164 127.359 33.096 127.359 32.0352Z" fill="white"/>
<path d="M138.61 28.5396C138.351 28.4928 138.074 28.4688 137.783 28.4688C136.86 28.4688 136.146 28.8084 135.644 29.4888C135.207 30.0888 134.988 30.8472 134.988 31.7628V37.8048H132.366L132.39 29.916C132.39 28.5888 132.357 27.3804 132.292 26.2908H134.577L134.673 28.494H134.746C135.023 27.7368 135.46 27.1272 136.058 26.67C136.642 26.2584 137.274 26.0532 137.954 26.0532C138.197 26.0532 138.416 26.07 138.61 26.1V28.5396Z" fill="white"/>
<path d="M150.346 31.5024C150.346 31.9608 150.315 32.3472 150.25 32.6628H142.378C142.409 33.8004 142.789 34.6704 143.52 35.2704C144.183 35.8068 145.041 36.0756 146.095 36.0756C147.26 36.0756 148.324 35.8944 149.28 35.5308L149.691 37.3068C148.574 37.782 147.254 38.0184 145.732 38.0184C143.9 38.0184 142.463 37.4928 141.417 36.4428C140.373 35.3928 139.85 33.9828 139.85 32.214C139.85 30.4776 140.336 29.0316 141.31 27.8784C142.329 26.6472 143.706 26.0316 145.439 26.0316C147.141 26.0316 148.43 26.6472 149.305 27.8784C149.998 28.8564 150.346 30.066 150.346 31.5024ZM147.844 30.8388C147.861 30.0804 147.69 29.4252 147.334 28.872C146.88 28.1604 146.182 27.8052 145.243 27.8052C144.385 27.8052 143.687 28.152 143.154 28.848C142.718 29.4012 142.458 30.0648 142.378 30.8376H147.844V30.8388Z" fill="white"/>
<path d="M56.0158 12.6313V11.5671H57.1423C58.116 11.5671 58.7443 11.0293 58.7443 10.2481V10.2368C58.7443 9.51225 58.1782 9.07637 57.1989 9.07637C56.2366 9.07637 55.6422 9.48961 55.546 10.1915L55.5403 10.2708H54.3233L54.3289 10.1915C54.4138 8.81032 55.529 7.96686 57.2385 7.96686C58.8802 7.96686 60.001 8.83862 60.001 10.101V10.1123C60.001 11.018 59.3896 11.7765 58.4839 11.986V12.0313C59.5764 12.1671 60.2501 12.9427 60.2501 14.0409V14.0522C60.2501 15.3994 58.9594 16.407 57.2102 16.407C55.4045 16.407 54.2044 15.49 54.1195 14.1427L54.1138 14.0748H55.3535L55.3592 14.1201C55.4497 14.873 56.1347 15.2975 57.2102 15.2975C58.2631 15.2975 58.9538 14.7824 58.9538 13.9956V13.9842C58.9538 13.1351 58.2971 12.6313 57.1763 12.6313H56.0158Z" fill="white"/>
<path d="M63.8883 16.3787C62.6996 16.3787 61.9014 15.6485 61.9014 14.5786V14.5673C61.9014 13.5314 62.7052 12.8974 64.1148 12.8125L65.7394 12.7162V12.269C65.7394 11.6124 65.3092 11.2161 64.5506 11.2161C63.8431 11.2161 63.4072 11.5501 63.3053 12.0256L63.294 12.0766H62.1392L62.1448 12.0143C62.2297 10.9897 63.1185 10.2029 64.5846 10.2029C66.0394 10.2029 66.9621 10.9727 66.9621 12.1671V16.2712H65.7394V15.3315H65.7111C65.3658 15.9712 64.6808 16.3787 63.8883 16.3787ZM63.1355 14.5503C63.1355 15.0711 63.5657 15.3994 64.2223 15.3994C65.0828 15.3994 65.7394 14.8164 65.7394 14.0409V13.5767L64.2789 13.6672C63.543 13.7125 63.1355 14.0352 63.1355 14.539V14.5503Z" fill="white"/>
<path d="M69.0663 16.2712V10.3161H71.7722C72.9326 10.3161 73.6346 10.8991 73.6346 11.8445V11.8558C73.6346 12.4728 73.193 13.0332 72.6213 13.1408V13.1861C73.3911 13.288 73.9006 13.8201 73.9006 14.5503V14.5616C73.9006 15.6032 73.0968 16.2712 71.8061 16.2712H69.0663ZM70.2777 12.7728H71.3929C72.0835 12.7728 72.4232 12.5181 72.4232 11.9917V11.9803C72.4232 11.4879 72.1062 11.2218 71.5174 11.2218H70.2777V12.7728ZM70.2777 15.3655H71.5797C72.2703 15.3655 72.6439 15.0768 72.6439 14.5107V14.4994C72.6439 13.9276 72.242 13.6616 71.4382 13.6616H70.2777V15.3655Z" fill="white"/>
<path d="M77.5502 16.3787C76.3615 16.3787 75.5633 15.6485 75.5633 14.5786V14.5673C75.5633 13.5314 76.3671 12.8974 77.7766 12.8125L79.4013 12.7162V12.269C79.4013 11.6124 78.9711 11.2161 78.2125 11.2161C77.5049 11.2161 77.069 11.5501 76.9672 12.0256L76.9558 12.0766H75.801L75.8067 12.0143C75.8916 10.9897 76.7804 10.2029 78.2465 10.2029C79.7013 10.2029 80.624 10.9727 80.624 12.1671V16.2712H79.4013V15.3315H79.373C79.0277 15.9712 78.3427 16.3787 77.5502 16.3787ZM76.7973 14.5503C76.7973 15.0711 77.2275 15.3994 77.8842 15.3994C78.7446 15.3994 79.4013 14.8164 79.4013 14.0409V13.5767L77.9408 13.6672C77.2049 13.7125 76.7973 14.0352 76.7973 14.539V14.5503Z" fill="white"/>
<path d="M86.6341 16.2712V13.6842H83.9509V16.2712H82.7282V10.3161H83.9509V12.7162H86.6341V10.3161H87.8569V16.2712H86.6341Z" fill="white"/>
<path d="M94.5123 10.3161V11.2897H92.6499V16.2712H91.4215V11.2897H89.5591V10.3161H94.5123Z" fill="white"/>
<path d="M97.777 16.3787C96.5882 16.3787 95.79 15.6485 95.79 14.5786V14.5673C95.79 13.5314 96.5939 12.8974 98.0034 12.8125L99.628 12.7162V12.269C99.628 11.6124 99.1978 11.2161 98.4393 11.2161C97.7317 11.2161 97.2958 11.5501 97.1939 12.0256L97.1826 12.0766H96.0278L96.0335 12.0143C96.1184 10.9897 97.0071 10.2029 98.4732 10.2029C99.9281 10.2029 100.851 10.9727 100.851 12.1671V16.2712H99.628V15.3315H99.5997C99.2544 15.9712 98.5695 16.3787 97.777 16.3787ZM97.0241 14.5503C97.0241 15.0711 97.4543 15.3994 98.111 15.3994C98.9714 15.3994 99.628 14.8164 99.628 14.0409V13.5767L98.1676 13.6672C97.4317 13.7125 97.0241 14.0352 97.0241 14.539V14.5503Z" fill="white"/>
<path d="M103.912 16.2712H102.406L104.942 13.1238L102.496 10.3161H103.946L106.04 12.7898H106.199V10.3161H107.399V12.7898H107.557L109.652 10.3161H111.095L108.65 13.1181L111.191 16.2712H109.68L107.557 13.5993H107.399V16.2712H106.199V13.5993H106.04L103.912 16.2712Z" fill="white"/>
<path d="M112.769 16.2712V10.3161H113.981V14.4824H114.037L116.771 10.3161H117.977V16.2712H116.76V12.0879H116.709L113.975 16.2712H112.769Z" fill="white"/>
<path d="M124.632 10.3161V11.2897H122.77V16.2712H121.542V11.2897H119.679V10.3161H124.632Z" fill="white"/>
<path d="M126.34 16.2712V10.3161H127.552V14.4824H127.608L130.343 10.3161H131.548V16.2712H130.331V12.0879H130.28L127.546 16.2712H126.34Z" fill="white"/>
<path d="M138.989 16.3901C137.596 16.3901 136.64 15.7221 136.521 14.6692L136.515 14.6182H137.715L137.732 14.6749C137.868 15.156 138.31 15.4164 138.983 15.4164C139.736 15.4164 140.2 15.0824 140.2 14.539V14.5277C140.2 13.9559 139.804 13.6842 138.978 13.6842H138.117V12.7955H138.972C139.691 12.7955 140.059 12.5238 140.059 11.9917V11.9803C140.059 11.4709 139.674 11.1708 139.029 11.1708C138.389 11.1708 137.942 11.4482 137.851 11.9011L137.846 11.9407H136.679L136.685 11.8954C136.827 10.8369 137.704 10.2029 139.046 10.2029C140.416 10.2029 141.253 10.8312 141.253 11.8501V11.8615C141.253 12.5011 140.84 13.0049 140.2 13.1521V13.1974C140.987 13.3559 141.417 13.8314 141.417 14.5277V14.539C141.417 15.6485 140.45 16.3901 138.989 16.3901Z" fill="white"/>
</svg>
