<svg width="67" height="9" viewBox="0 0 67 9" fill="none" xmlns="http://www.w3.org/2000/svg">
<g id="&#208;&#158;&#208;&#162;&#208;&#160;&#208;&#152;&#208;&#156;&#208;&#144;&#208;&#162;&#208;&#152; &#208;&#146;">
<path d="M7.28422 4.67136C7.28422 5.25658 7.21018 5.78892 7.06211 6.26838C6.91405 6.74079 6.69195 7.14974 6.39581 7.49523C6.10672 7.84072 5.74361 8.10513 5.30645 8.28845C4.87635 8.47177 4.37574 8.56343 3.80462 8.56343C3.21235 8.56343 2.69764 8.47177 2.26049 8.28845C1.82333 8.09807 1.46022 7.83367 1.17113 7.49523C0.882046 7.14974 0.666995 6.73726 0.525979 6.2578C0.384962 5.77835 0.314453 5.24601 0.314453 4.66079C0.314453 3.88519 0.441368 3.20831 0.695199 2.63014C0.949029 2.05197 1.3333 1.60072 1.84801 1.27638C2.36978 0.952041 3.0255 0.789871 3.8152 0.789871C4.56964 0.789871 5.20422 0.952041 5.71893 1.27638C6.23364 1.59367 6.62144 2.04492 6.88232 2.63014C7.15025 3.20831 7.28422 3.88872 7.28422 4.67136ZM1.3192 4.67136C1.3192 5.30594 1.40733 5.85238 1.58361 6.31069C1.75988 6.76899 2.03133 7.12153 2.39798 7.36831C2.77167 7.61509 3.24056 7.73848 3.80462 7.73848C4.37574 7.73848 4.8411 7.61509 5.20069 7.36831C5.56734 7.12153 5.83879 6.76899 6.01506 6.31069C6.19133 5.85238 6.27947 5.30594 6.27947 4.67136C6.27947 3.7195 6.08205 2.97563 5.6872 2.43977C5.29235 1.89685 4.66835 1.6254 3.8152 1.6254C3.24408 1.6254 2.77167 1.74879 2.39798 1.99557C2.03133 2.2353 1.75988 2.58431 1.58361 3.04262C1.40733 3.49387 1.3192 4.03679 1.3192 4.67136Z" fill="white"/>
<path d="M11.028 8.45767H10.0761V1.74174H7.7176V0.90621H13.3759V1.74174H11.028V8.45767Z" fill="white"/>
<path d="M16.5135 0.90621C17.5006 0.90621 18.2198 1.10011 18.6711 1.4879C19.1223 1.8757 19.3479 2.42214 19.3479 3.12723C19.3479 3.43746 19.2951 3.73713 19.1893 4.02621C19.0906 4.30824 18.9249 4.56208 18.6922 4.7877C18.4595 5.01333 18.1493 5.19313 17.7615 5.32709C17.3737 5.45401 16.8978 5.51746 16.3337 5.51746H15.4664V8.45767H14.5146V0.90621H16.5135ZM16.4289 1.72058H15.4664V4.70309H16.2279C16.7074 4.70309 17.1058 4.65374 17.4231 4.55502C17.7403 4.44926 17.9766 4.28357 18.1317 4.05794C18.2868 3.83231 18.3643 3.53618 18.3643 3.16953C18.3643 2.68302 18.2092 2.31991 17.899 2.08018C17.5888 1.84045 17.0987 1.72058 16.4289 1.72058Z" fill="white"/>
<path d="M20.9288 0.90621H21.8172V5.05211C21.8172 5.22838 21.8136 5.42228 21.8066 5.6338C21.8066 5.83828 21.8031 6.04275 21.796 6.24723C21.789 6.4517 21.7784 6.63502 21.7643 6.79719C21.7572 6.95231 21.7502 7.07218 21.7431 7.15679H21.7854L25.9419 0.90621H26.9995V8.45767H26.1111V4.35407C26.1111 4.1637 26.1147 3.95923 26.1217 3.74065C26.1288 3.51502 26.1358 3.29997 26.1429 3.0955C26.157 2.88397 26.1675 2.69713 26.1746 2.53496C26.1816 2.37279 26.1887 2.25292 26.1957 2.17536H26.1534L21.9864 8.45767H20.9288V0.90621Z" fill="white"/>
<path d="M32.3678 8.45767L29.8824 1.83692H29.8401C29.8542 1.97794 29.8648 2.15774 29.8718 2.37631C29.8859 2.59489 29.8965 2.83462 29.9036 3.0955C29.9106 3.34933 29.9141 3.61021 29.9141 3.87814V8.45767H29.0363V0.90621H30.4429L32.7697 7.09333H32.812L35.1811 0.90621H36.5772V8.45767H35.6359V3.81469C35.6359 3.56791 35.6394 3.32465 35.6465 3.08492C35.6535 2.83814 35.6641 2.60899 35.6782 2.39746C35.6923 2.17889 35.7029 1.99557 35.7099 1.8475H35.6676L33.1505 8.45767H32.3678Z" fill="white"/>
<path d="M43.3695 8.45767L42.46 6.12031H39.4669L38.5679 8.45767H37.6055L40.5563 0.874482H41.4129L44.3531 8.45767H43.3695ZM41.3283 2.98974C41.3072 2.93333 41.2719 2.83109 41.2226 2.68302C41.1732 2.53496 41.1239 2.38336 41.0745 2.22824C41.0322 2.06607 40.9969 1.94268 40.9687 1.85807C40.9335 1.99909 40.8947 2.14363 40.8524 2.2917C40.8171 2.43272 40.7784 2.56316 40.7361 2.68302C40.7008 2.80289 40.6691 2.90513 40.6409 2.98974L39.7842 5.27421H42.1744L41.3283 2.98974Z" fill="white"/>
<path d="M47.0327 8.45767H46.0809V1.74174H43.7224V0.90621H49.3807V1.74174H47.0327V8.45767Z" fill="white"/>
<path d="M50.5299 0.90621H51.4183V5.05211C51.4183 5.22838 51.4148 5.42228 51.4078 5.6338C51.4078 5.83828 51.4042 6.04275 51.3972 6.24723C51.3901 6.4517 51.3796 6.63502 51.3655 6.79719C51.3584 6.95231 51.3514 7.07218 51.3443 7.15679H51.3866L55.5431 0.90621H56.6007V8.45767H55.7123V4.35407C55.7123 4.1637 55.7158 3.95923 55.7229 3.74065C55.7299 3.51502 55.737 3.29997 55.744 3.0955C55.7581 2.88397 55.7687 2.69713 55.7758 2.53496C55.7828 2.37279 55.7899 2.25292 55.7969 2.17536H55.7546L51.5876 8.45767H50.5299V0.90621Z" fill="white"/>
<path d="M63.1189 0.90621C63.7464 0.90621 64.2717 0.966142 64.6948 1.08601C65.1249 1.20587 65.4457 1.4033 65.6572 1.67828C65.8758 1.95326 65.9851 2.31991 65.9851 2.77821C65.9851 3.07435 65.9287 3.33875 65.8159 3.57143C65.7101 3.79706 65.5479 3.98743 65.3294 4.14255C65.1178 4.29062 64.8569 4.39285 64.5467 4.44926V4.50214C64.864 4.5515 65.1496 4.64316 65.4034 4.77713C65.6643 4.91109 65.8687 5.10146 66.0168 5.34824C66.1649 5.59502 66.2389 5.91584 66.2389 6.31069C66.2389 6.76899 66.1332 7.16031 65.9216 7.48465C65.7101 7.80194 65.4069 8.04519 65.0121 8.21441C64.6243 8.37658 64.1589 8.45767 63.616 8.45767H60.9614V0.90621H63.1189ZM63.3093 4.1214C63.958 4.1214 64.4022 4.01916 64.6419 3.81469C64.8816 3.60316 65.0015 3.29292 65.0015 2.88397C65.0015 2.46797 64.8534 2.17184 64.5573 1.99557C64.2682 1.81224 63.8029 1.72058 63.1612 1.72058H61.9132V4.1214H63.3093ZM61.9132 4.91462V7.65387H63.4362C64.106 7.65387 64.5714 7.52343 64.8323 7.26255C65.0931 7.00167 65.2236 6.6597 65.2236 6.23665C65.2236 5.96872 65.1637 5.73604 65.0438 5.53862C64.931 5.34119 64.7371 5.1896 64.4621 5.08384C64.1942 4.97102 63.8275 4.91462 63.3622 4.91462H61.9132Z" fill="white"/>
</g>
</svg>
