<svg width="167" height="48" viewBox="0 0 167 48" fill="none" xmlns="http://www.w3.org/2000/svg">
<path d="M160.009 48H6.3739C2.99548 48 0.228516 45.2985 0.228516 42V6C0.228516 2.7015 2.99548 -2.1874e-06 6.3739 -2.1874e-06H160.009C163.387 -2.1874e-06 166.154 2.7015 166.154 6V42C166.154 45.2985 163.387 48 160.009 48Z" fill="black"/>
<path d="M160.009 0.961496C162.854 0.961496 165.169 3.222 165.169 6V42C165.169 44.778 162.854 47.0385 160.009 47.0385H6.3739C3.52859 47.0385 1.21331 44.778 1.21331 42V6C1.21331 3.222 3.52859 0.961496 6.3739 0.961496H160.009ZM160.009 -2.1874e-06H6.3739C2.99548 -2.1874e-06 0.228516 2.7015 0.228516 6V42C0.228516 45.2985 2.99548 48 6.3739 48H160.009C163.387 48 166.154 45.2985 166.154 42V6C166.154 2.7015 163.387 -2.1874e-06 160.009 -2.1874e-06Z" fill="#A6A6A6"/>
<path d="M83.9717 26.103C81.0849 26.103 78.7266 28.248 78.7266 31.2075C78.7266 34.143 81.0849 36.3105 83.9717 36.3105C86.8646 36.3105 89.2229 34.143 89.2229 31.2075C89.2229 28.248 86.8646 26.103 83.9717 26.103ZM83.9717 34.3005C82.3877 34.3005 81.025 33.024 81.025 31.2075C81.025 29.367 82.3877 28.113 83.9717 28.113C85.5557 28.113 86.9245 29.367 86.9245 31.2075C86.9245 33.024 85.5557 34.3005 83.9717 34.3005V34.3005ZM72.5274 26.103C69.6345 26.103 67.2824 28.248 67.2824 31.2075C67.2824 34.143 69.6345 36.3105 72.5274 36.3105C75.4188 36.3105 77.7725 34.143 77.7725 31.2075C77.7725 28.248 75.4188 26.103 72.5274 26.103ZM72.5274 34.3005C70.9419 34.3005 69.5746 33.024 69.5746 31.2075C69.5746 29.367 70.9419 28.113 72.5274 28.113C74.1114 28.113 75.4742 29.367 75.4742 31.2075C75.4742 33.024 74.1114 34.3005 72.5274 34.3005ZM58.9093 27.6675V29.8365H64.2143C64.0591 31.0485 63.6443 31.9395 63.0082 32.5605C62.2339 33.3105 61.0279 34.143 58.9093 34.143C55.6445 34.143 53.0881 31.5705 53.0881 28.383C53.0881 25.1955 55.6445 22.623 58.9093 22.623C60.6745 22.623 61.9589 23.2965 62.9068 24.1695L64.4724 22.641C63.1465 21.405 61.3828 20.4555 58.9093 20.4555C54.4324 20.4555 50.6698 24.012 50.6698 28.383C50.6698 32.754 54.4324 36.3105 58.9093 36.3105C61.329 36.3105 63.1465 35.5365 64.5753 34.0845C66.0395 32.655 66.4957 30.645 66.4957 29.022C66.4957 28.518 66.4527 28.0545 66.3759 27.6675H58.9093ZM114.596 29.349C114.164 28.2075 112.832 26.103 110.119 26.103C107.43 26.103 105.192 28.1715 105.192 31.2075C105.192 34.0665 107.407 36.3105 110.377 36.3105C112.778 36.3105 114.164 34.881 114.734 34.0485L112.952 32.889C112.357 33.738 111.548 34.3005 110.377 34.3005C109.214 34.3005 108.38 33.78 107.845 32.754L114.837 29.9295L114.596 29.349V29.349ZM107.467 31.0485C107.407 29.0805 109.033 28.0725 110.197 28.0725C111.11 28.0725 111.884 28.518 112.142 29.1555L107.467 31.0485V31.0485ZM101.784 36H104.082V21H101.784V36ZM98.02 27.24H97.9432C97.427 26.643 96.4422 26.103 95.1947 26.103C92.5768 26.103 90.1831 28.347 90.1831 31.224C90.1831 34.0845 92.5768 36.3105 95.1947 36.3105C96.4422 36.3105 97.427 35.766 97.9432 35.151H98.02V35.883C98.02 37.8345 96.9523 38.883 95.23 38.883C93.8258 38.883 92.9547 37.893 92.5952 37.0605L90.5964 37.875C91.1725 39.228 92.6981 40.893 95.23 40.893C97.9248 40.893 100.199 39.345 100.199 35.5785V26.4135H98.02V27.24V27.24ZM95.3914 34.3005C93.8074 34.3005 92.4815 33.006 92.4815 31.224C92.4815 29.4255 93.8074 28.113 95.3914 28.113C96.9523 28.113 98.1829 29.4255 98.1829 31.224C98.1829 33.006 96.9523 34.3005 95.3914 34.3005V34.3005ZM125.356 21H119.859V36H122.151V30.3165H125.356C127.902 30.3165 130.399 28.518 130.399 25.6575C130.399 22.7985 127.896 21 125.356 21V21ZM125.416 28.23H122.151V23.0865H125.416C127.128 23.0865 128.105 24.474 128.105 25.6575C128.105 26.8185 127.128 28.23 125.416 28.23ZM139.586 26.0745C137.93 26.0745 136.207 26.7885 135.499 28.371L137.533 29.2035C137.971 28.371 138.776 28.101 139.627 28.101C140.817 28.101 142.023 28.7985 142.041 30.03V30.1875C141.626 29.9535 140.738 29.607 139.646 29.607C137.455 29.607 135.223 30.7845 135.223 32.982C135.223 34.992 137.017 36.2865 139.034 36.2865C140.577 36.2865 141.428 35.607 141.963 34.8165H142.041V35.976H144.255V30.222C144.255 27.5625 142.221 26.0745 139.586 26.0745ZM139.309 34.2945C138.56 34.2945 137.515 33.9315 137.515 33.024C137.515 31.863 138.818 31.4175 139.945 31.4175C140.955 31.4175 141.428 31.635 142.041 31.9215C141.861 33.3105 140.637 34.2945 139.309 34.2945V34.2945ZM152.321 26.403L149.686 32.9055H149.607L146.884 26.403H144.412L148.504 35.49L146.169 40.5465H148.564L154.871 26.403H152.321V26.403ZM131.658 36H133.957V21H131.658V36Z" fill="white"/>
<path d="M13.0539 9.04648C12.6929 9.41548 12.484 9.98998 12.484 10.734V37.272C12.484 38.016 12.6929 38.5905 13.0539 38.9595L13.1431 39.0405L28.3744 24.1755V23.8245L13.1431 8.95948L13.0539 9.04648Z" fill="url(#paint0_linear_3_72)"/>
<path d="M33.4458 29.133L28.3744 24.1755V23.8245L33.452 18.867L33.5657 18.9315L39.5789 22.272C41.295 23.22 41.295 24.78 39.5789 25.734L33.5657 29.0685L33.4458 29.133V29.133Z" fill="url(#paint1_linear_3_72)"/>
<path d="M33.5657 29.0685L28.3744 24L13.0539 38.9595C13.6239 39.5445 14.5534 39.615 15.6104 39.03L33.5657 29.0685" fill="url(#paint2_linear_3_72)"/>
<path d="M33.5657 18.9315L15.6104 8.97C14.5534 8.391 13.6239 8.4615 13.0539 9.0465L28.3744 24L33.5657 18.9315Z" fill="url(#paint3_linear_3_72)"/>
<path d="M58.2841 11.6714C58.2841 12.2566 58.2101 12.7889 58.062 13.2684C57.9139 13.7408 57.6918 14.1497 57.3957 14.4952C57.1066 14.8407 56.7435 15.1051 56.3063 15.2884C55.8762 15.4718 55.3756 15.5634 54.8045 15.5634C54.2122 15.5634 53.6975 15.4718 53.2604 15.2884C52.8232 15.0981 52.4601 14.8337 52.171 14.4952C51.8819 14.1497 51.6669 13.7373 51.5259 13.2578C51.3849 12.7783 51.3143 12.246 51.3143 11.6608C51.3143 10.8852 51.4413 10.2083 51.6951 9.63014C51.9489 9.05197 52.3332 8.60072 52.8479 8.27638C53.3697 7.95204 54.0254 7.78987 54.8151 7.78987C55.5695 7.78987 56.2041 7.95204 56.7188 8.27638C57.2335 8.59367 57.6213 9.04492 57.8822 9.63014C58.1501 10.2083 58.2841 10.8887 58.2841 11.6714ZM52.3191 11.6714C52.3191 12.3059 52.4072 12.8524 52.5835 13.3107C52.7598 13.769 53.0312 14.1215 53.3979 14.3683C53.7716 14.6151 54.2404 14.7385 54.8045 14.7385C55.3756 14.7385 55.841 14.6151 56.2006 14.3683C56.5672 14.1215 56.8387 13.769 57.015 13.3107C57.1912 12.8524 57.2794 12.3059 57.2794 11.6714C57.2794 10.7195 57.0819 9.97564 56.6871 9.43977C56.2922 8.89686 55.6682 8.6254 54.8151 8.6254C54.244 8.6254 53.7716 8.74879 53.3979 8.99557C53.0312 9.2353 52.7598 9.58431 52.5835 10.0426C52.4072 10.4939 52.3191 11.0368 52.3191 11.6714Z" fill="white"/>
<path d="M62.0279 15.4577H61.076V8.74174H58.7175V7.90621H64.3758V8.74174H62.0279V15.4577Z" fill="white"/>
<path d="M67.5134 7.90621C68.5005 7.90621 69.2197 8.10011 69.671 8.48791C70.1222 8.8757 70.3478 9.42214 70.3478 10.1272C70.3478 10.4375 70.295 10.7371 70.1892 11.0262C70.0905 11.3082 69.9248 11.5621 69.6921 11.7877C69.4594 12.0133 69.1492 12.1931 68.7614 12.3271C68.3736 12.454 67.8977 12.5175 67.3336 12.5175H66.4663V15.4577H65.5145V7.90621H67.5134ZM67.4288 8.72058H66.4663V11.7031H67.2278C67.7073 11.7031 68.1057 11.6537 68.423 11.555C68.7402 11.4493 68.9764 11.2836 69.1316 11.0579C69.2867 10.8323 69.3642 10.5362 69.3642 10.1695C69.3642 9.68303 69.2091 9.31991 68.8989 9.08018C68.5886 8.84045 68.0986 8.72058 67.4288 8.72058Z" fill="white"/>
<path d="M71.9287 7.90621H72.8171V12.0521C72.8171 12.2284 72.8135 12.4223 72.8065 12.6338C72.8065 12.8383 72.803 13.0428 72.7959 13.2472C72.7889 13.4517 72.7783 13.635 72.7642 13.7972C72.7571 13.9523 72.7501 14.0722 72.743 14.1568H72.7853L76.9418 7.90621H77.9994V15.4577H77.111V11.3541C77.111 11.1637 77.1146 10.9592 77.1216 10.7407C77.1287 10.515 77.1357 10.3 77.1428 10.0955C77.1569 9.88397 77.1674 9.69713 77.1745 9.53496C77.1815 9.37279 77.1886 9.25292 77.1956 9.17536H77.1533L72.9863 15.4577H71.9287V7.90621Z" fill="white"/>
<path d="M83.3677 15.4577L80.8823 8.83692H80.84C80.8541 8.97794 80.8647 9.15774 80.8717 9.37631C80.8858 9.59489 80.8964 9.83462 80.9034 10.0955C80.9105 10.3493 80.914 10.6102 80.914 10.8781V15.4577H80.0362V7.90621H81.4428L83.7696 14.0933H83.8119L86.181 7.90621H87.5771V15.4577H86.6358V10.8147C86.6358 10.5679 86.6393 10.3247 86.6464 10.0849C86.6534 9.83814 86.664 9.60899 86.6781 9.39747C86.6922 9.17889 86.7028 8.99557 86.7098 8.8475H86.6675L84.1504 15.4577H83.3677Z" fill="white"/>
<path d="M94.3694 15.4577L93.4599 13.1203H90.4668L89.5678 15.4577H88.6054L91.5562 7.87448H92.4128L95.353 15.4577H94.3694ZM92.3282 9.98974C92.3071 9.93333 92.2718 9.83109 92.2225 9.68303C92.1731 9.53496 92.1237 9.38336 92.0744 9.22824C92.0321 9.06608 91.9968 8.94269 91.9686 8.85808C91.9334 8.99909 91.8946 9.14363 91.8523 9.2917C91.817 9.43272 91.7783 9.56316 91.7359 9.68303C91.7007 9.80289 91.669 9.90513 91.6408 9.98974L90.7841 12.2742H93.1743L92.3282 9.98974Z" fill="white"/>
<path d="M98.0326 15.4577H97.0808V8.74174H94.7223V7.90621H100.381V8.74174H98.0326V15.4577Z" fill="white"/>
<path d="M101.53 7.90621H102.418V12.0521C102.418 12.2284 102.415 12.4223 102.408 12.6338C102.408 12.8383 102.404 13.0428 102.397 13.2472C102.39 13.4517 102.379 13.635 102.365 13.7972C102.358 13.9523 102.351 14.0722 102.344 14.1568H102.387L106.543 7.90621H107.601V15.4577H106.712V11.3541C106.712 11.1637 106.716 10.9592 106.723 10.7407C106.73 10.515 106.737 10.3 106.744 10.0955C106.758 9.88397 106.769 9.69713 106.776 9.53496C106.783 9.37279 106.79 9.25292 106.797 9.17536H106.755L102.587 15.4577H101.53V7.90621Z" fill="white"/>
<path d="M114.119 7.90621C114.746 7.90621 115.272 7.96614 115.695 8.08601C116.125 8.20587 116.446 8.4033 116.657 8.67828C116.876 8.95326 116.985 9.31991 116.985 9.77821C116.985 10.0743 116.929 10.3388 116.816 10.5714C116.71 10.7971 116.548 10.9874 116.329 11.1426C116.118 11.2906 115.857 11.3929 115.547 11.4493V11.5021C115.864 11.5515 116.149 11.6432 116.403 11.7771C116.664 11.9111 116.869 12.1015 117.017 12.3482C117.165 12.595 117.239 12.9158 117.239 13.3107C117.239 13.769 117.133 14.1603 116.922 14.4847C116.71 14.8019 116.407 15.0452 116.012 15.2144C115.624 15.3766 115.159 15.4577 114.616 15.4577H111.961V7.90621H114.119ZM114.309 11.1214C114.958 11.1214 115.402 11.0192 115.642 10.8147C115.882 10.6032 116.001 10.2929 116.001 9.88397C116.001 9.46797 115.853 9.17184 115.557 8.99557C115.268 8.81225 114.803 8.72058 114.161 8.72058H112.913V11.1214H114.309ZM112.913 11.9146V14.6539H114.436C115.106 14.6539 115.571 14.5234 115.832 14.2626C116.093 14.0017 116.223 13.6597 116.223 13.2367C116.223 12.9687 116.164 12.736 116.044 12.5386C115.931 12.3412 115.737 12.1896 115.462 12.0838C115.194 11.971 114.827 11.9146 114.362 11.9146H112.913Z" fill="white"/>
<defs>
<linearGradient id="paint0_linear_3_72" x1="27.022" y1="37.5483" x2="6.88893" y2="16.9274" gradientUnits="userSpaceOnUse">
<stop stop-color="#00A0FF"/>
<stop offset="0.0066" stop-color="#00A1FF"/>
<stop offset="0.2601" stop-color="#00BEFF"/>
<stop offset="0.5122" stop-color="#00D2FF"/>
<stop offset="0.7604" stop-color="#00DFFF"/>
<stop offset="1" stop-color="#00E3FF"/>
</linearGradient>
<linearGradient id="paint1_linear_3_72" x1="41.8136" y1="23.9983" x2="12.0737" y2="23.9983" gradientUnits="userSpaceOnUse">
<stop stop-color="#FFE000"/>
<stop offset="0.4087" stop-color="#FFBD00"/>
<stop offset="0.7754" stop-color="#FFA500"/>
<stop offset="1" stop-color="#FF9C00"/>
</linearGradient>
<linearGradient id="paint2_linear_3_72" x1="30.7428" y1="21.2447" x2="3.44068" y2="-6.71902" gradientUnits="userSpaceOnUse">
<stop stop-color="#FF3A44"/>
<stop offset="1" stop-color="#C31162"/>
</linearGradient>
<linearGradient id="paint3_linear_3_72" x1="9.19745" y1="47.7886" x2="21.3891" y2="35.3016" gradientUnits="userSpaceOnUse">
<stop stop-color="#32A071"/>
<stop offset="0.0685" stop-color="#2DA771"/>
<stop offset="0.4762" stop-color="#15CF74"/>
<stop offset="0.8009" stop-color="#06E775"/>
<stop offset="1" stop-color="#00F076"/>
</linearGradient>
</defs>
</svg>
