<svg width="105" height="21" viewBox="0 0 105 21" fill="none" xmlns="http://www.w3.org/2000/svg">
<path id="path46" d="M33.9718 6.10303C31.085 6.10303 28.7267 8.24802 28.7267 11.2075C28.7267 14.143 31.085 16.3105 33.9718 16.3105C36.8647 16.3105 39.223 14.143 39.223 11.2075C39.223 8.24802 36.8647 6.10303 33.9718 6.10303ZM33.9718 14.3005C32.3878 14.3005 31.0251 13.024 31.0251 11.2075C31.0251 9.36703 32.3878 8.11303 33.9718 8.11303C35.5557 8.11303 36.9246 9.36703 36.9246 11.2075C36.9246 13.024 35.5557 14.3005 33.9718 14.3005ZM22.5275 6.10303C19.6346 6.10303 17.2824 8.24802 17.2824 11.2075C17.2824 14.143 19.6346 16.3105 22.5275 16.3105C25.4189 16.3105 27.7726 14.143 27.7726 11.2075C27.7726 8.24802 25.4189 6.10303 22.5275 6.10303ZM22.5275 14.3005C20.942 14.3005 19.5747 13.024 19.5747 11.2075C19.5747 9.36703 20.942 8.11303 22.5275 8.11303C24.1115 8.11303 25.4742 9.36703 25.4742 11.2075C25.4742 13.024 24.1115 14.3005 22.5275 14.3005ZM8.90935 7.66752V9.83652H14.2143C14.0592 11.0485 13.6444 11.9395 13.0083 12.5605C12.234 13.3105 11.028 14.143 8.90935 14.143C5.64461 14.143 3.08813 11.5705 3.08813 8.38303C3.08813 5.19553 5.64461 2.62303 8.90935 2.62303C10.6746 2.62303 11.959 3.29653 12.9069 4.16953L14.4725 2.64103C13.1466 1.40503 11.3829 0.455526 8.90935 0.455526C4.43243 0.455526 0.669922 4.01203 0.669922 8.38303C0.669922 12.754 4.43243 16.3105 8.90935 16.3105C11.3291 16.3105 13.1466 15.5365 14.5754 14.0845C16.0395 12.655 16.4958 10.645 16.4958 9.02202C16.4958 8.51802 16.4528 8.05452 16.376 7.66752H8.90935ZM64.5958 9.34903C64.164 8.20752 62.832 6.10303 60.1188 6.10303C57.4302 6.10303 55.1918 8.17153 55.1918 11.2075C55.1918 14.0665 57.4072 16.3105 60.377 16.3105C62.7783 16.3105 64.164 14.881 64.734 14.0485L62.9519 12.889C62.3573 13.738 61.5476 14.3005 60.377 14.3005C59.2139 14.3005 58.3797 13.78 57.845 12.754L64.837 9.92952L64.5958 9.34903ZM57.4671 11.0485C57.4072 9.08052 59.0327 8.07253 60.1972 8.07253C61.1098 8.07253 61.8841 8.51803 62.1422 9.15553L57.4671 11.0485ZM51.7842 16H54.0825V1.00003H51.7842V16ZM48.0201 7.24002H47.9433C47.4271 6.64303 46.4423 6.10303 45.1948 6.10303C42.5768 6.10303 40.1832 8.34702 40.1832 11.224C40.1832 14.0845 42.5768 16.3105 45.1948 16.3105C46.4423 16.3105 47.4271 15.766 47.9433 15.151H48.0201V15.883C48.0201 17.8345 46.9524 18.883 45.2301 18.883C43.8259 18.883 42.9548 17.893 42.5953 17.0605L40.5965 17.875C41.1726 19.228 42.6982 20.893 45.2301 20.893C47.9249 20.893 50.1987 19.345 50.1987 15.5785V6.41352H48.0201V7.24002ZM45.3914 14.3005C43.8075 14.3005 42.4816 13.006 42.4816 11.224C42.4816 9.42552 43.8075 8.11303 45.3914 8.11303C46.9524 8.11303 48.183 9.42552 48.183 11.224C48.183 13.006 46.9524 14.3005 45.3914 14.3005ZM75.3563 1.00003H69.8593V16H72.1515V10.3165H75.3563C77.9021 10.3165 80.3986 8.51802 80.3986 5.65753C80.3986 2.79853 77.8959 1.00003 75.3563 1.00003ZM75.4162 8.23002H72.1515V3.08653H75.4162C77.1277 3.08653 78.1049 4.47403 78.1049 5.65753C78.1049 6.81852 77.1277 8.23002 75.4162 8.23002ZM89.586 6.07453C87.9298 6.07453 86.2075 6.78853 85.4993 8.37102L87.5334 9.20352C87.9713 8.37102 88.7763 8.10102 89.6274 8.10102C90.8166 8.10102 92.0226 8.79852 92.0411 10.03V10.1875C91.6262 9.95352 90.7382 9.60703 89.6459 9.60703C87.4551 9.60703 85.2227 10.7845 85.2227 12.982C85.2227 14.992 87.0172 16.2865 89.0344 16.2865C90.5769 16.2865 91.428 15.607 91.9627 14.8165H92.0411V15.976H94.2549V10.222C94.2549 7.56253 92.2208 6.07453 89.586 6.07453ZM89.3094 14.2945C88.5597 14.2945 87.515 13.9315 87.515 13.024C87.515 11.863 88.8178 11.4175 89.9455 11.4175C90.9549 11.4175 91.428 11.635 92.0411 11.9215C91.8613 13.3105 90.6368 14.2945 89.3094 14.2945ZM102.321 6.40302L99.6859 12.9055H99.6076L96.8836 6.40302H94.4116L98.5045 15.49L96.1692 20.5465H98.5644L104.871 6.40302H102.321ZM81.6584 16H83.9568V1.00003H81.6584V16Z" fill="white"/>
</svg>
