<svg width="108" height="14" viewBox="0 0 108 14" fill="none" xmlns="http://www.w3.org/2000/svg">
<g id="type">
<path id="ArtWizard" d="M12.043 7.8263L10.3496 4.35833L8.69692 7.8263H12.043ZM14.0614 11.9716L13.2757 10.346H7.51835L6.74619 11.9716H2.84473L7.82993 1.89282H13.0048L18.2745 11.9716H14.0614ZM22.2629 4.68345V6.02458C22.3984 5.82589 22.5655 5.63172 22.7642 5.44207C22.9719 5.24338 23.3105 5.04018 23.7802 4.83247C24.2498 4.62475 24.76 4.52089 25.3109 4.52089H25.4735C26.0515 4.52089 26.5482 4.61572 26.9636 4.80537C27.3791 4.986 27.6952 5.23887 27.9119 5.56399C28.1287 5.88008 28.2867 6.21875 28.3861 6.58C28.4854 6.93221 28.5351 7.32055 28.5351 7.74502V8.47654H24.9587V8.21915C24.9587 7.77663 24.8504 7.4199 24.6336 7.14896C24.4259 6.86899 24.0963 6.72901 23.6447 6.72901C23.2202 6.72901 22.8861 6.87351 22.6422 7.16251C22.4074 7.4515 22.29 7.83081 22.29 8.30043V11.9716H18.6053V4.68345H22.2629ZM35.3903 11.9716H32.2745C30.983 11.9716 30.3373 11.2807 30.3373 9.89895V6.91867H28.942V4.68345H30.3373V2.55661H33.9949V4.68345H35.3903V6.91867H33.9949V9.0726C33.9949 9.30741 34.0311 9.47449 34.1033 9.57383C34.1846 9.66414 34.3517 9.7093 34.6045 9.7093H35.3903V11.9716ZM44.1777 11.9716H39.4905L35.5619 1.89282H39.8427L42.1321 8.54428L44.1506 1.89282H48.4855L50.5311 8.4359L52.7527 1.89282H56.6948L52.7663 11.9716H48.3094L46.2097 5.60463L44.1777 11.9716ZM60.7607 1.89282V4.07385H57.076V1.89282H60.7607ZM60.7607 4.68345V11.9716H57.076V4.68345H60.7607ZM71.1857 11.9716H61.5946V9.99378L66.4444 6.83739H61.5946V4.68345H71.1722V6.62064L66.1734 9.73639H71.1857V11.9716ZM78.5278 8.8423V8.53073L76.0893 8.96422C75.7642 9.01841 75.5339 9.09066 75.3985 9.18097C75.263 9.27128 75.1953 9.40675 75.1953 9.58738V9.60092C75.1953 9.80864 75.2811 9.98475 75.4527 10.1292C75.6333 10.2737 75.9313 10.346 76.3467 10.346C76.997 10.346 77.5208 10.197 77.9182 9.89895C78.3246 9.59189 78.5278 9.23968 78.5278 8.8423ZM78.5955 10.9962C77.8549 11.7368 76.717 12.1071 75.1817 12.1071H75.0327C73.8948 12.1071 73.0458 11.8813 72.4859 11.4297C71.935 10.9782 71.6596 10.4228 71.6596 9.76348V9.60092C71.6596 8.96874 71.8853 8.48106 72.3369 8.13787C72.7975 7.78566 73.5561 7.56891 74.6127 7.48763L78.1214 7.17605C78.3923 7.13993 78.5278 7.02252 78.5278 6.82384C78.5278 6.71546 78.4962 6.62515 78.4329 6.5529C78.3787 6.48065 78.2297 6.41744 77.9859 6.36325C77.7421 6.30003 77.3943 6.26842 76.9428 6.26842H76.8886C76.5274 6.26842 76.2248 6.29552 75.981 6.3497C75.7462 6.39486 75.5791 6.46711 75.4797 6.56645C75.3894 6.66579 75.3307 6.74256 75.3036 6.79675C75.2856 6.8419 75.2675 6.91415 75.2494 7.01349H71.8357V6.93221C71.8357 6.68837 71.8537 6.47614 71.8899 6.29552C71.935 6.11489 72.0479 5.90266 72.2285 5.65882C72.4091 5.41498 72.653 5.21629 72.96 5.06276C73.2761 4.90923 73.7367 4.77828 74.3418 4.66991C74.9559 4.5525 75.6784 4.4938 76.5093 4.4938H77.2679C78.1349 4.4938 78.8845 4.54798 79.5167 4.65636C80.1489 4.7557 80.6275 4.88214 80.9526 5.03567C81.2777 5.18017 81.5351 5.36982 81.7248 5.60463C81.9145 5.83041 82.0273 6.03361 82.0635 6.21424C82.1086 6.38583 82.1312 6.59354 82.1312 6.83739V9.53319C82.1312 9.74091 82.2351 9.84476 82.4428 9.84476H82.8356V11.9716H79.7741C79.0967 11.9716 78.7039 11.6465 78.5955 10.9962ZM87.1259 4.68345V6.02458C87.2614 5.82589 87.4285 5.63172 87.6271 5.44207C87.8349 5.24338 88.1735 5.04018 88.6432 4.83247C89.1128 4.62475 89.623 4.52089 90.1739 4.52089H90.3365C90.9145 4.52089 91.4112 4.61572 91.8266 4.80537C92.2421 4.986 92.5582 5.23887 92.7749 5.56399C92.9917 5.88008 93.1497 6.21875 93.2491 6.58C93.3484 6.93221 93.3981 7.32055 93.3981 7.74502V8.47654H89.8217V8.21915C89.8217 7.77663 89.7133 7.4199 89.4966 7.14896C89.2889 6.86899 88.9592 6.72901 88.5077 6.72901C88.0832 6.72901 87.7491 6.87351 87.5052 7.16251C87.2704 7.4515 87.153 7.83081 87.153 8.30043V11.9716H83.4683V4.68345H87.1259ZM102.028 8.32753V8.25979C102.028 7.81727 101.825 7.42893 101.418 7.09477C101.021 6.75159 100.461 6.58 99.7385 6.58H99.6707C98.9392 6.58 98.4154 6.74256 98.0993 7.06768C97.7832 7.38377 97.6252 7.78114 97.6252 8.25979V8.32753C97.6252 8.78812 97.7923 9.19 98.1264 9.53319C98.4696 9.87637 98.9889 10.048 99.6843 10.048H99.7385C100.47 10.048 101.034 9.87637 101.432 9.53319C101.829 9.18097 102.028 8.77909 102.028 8.32753ZM102.028 1.89282H105.713V11.9716H102.041V10.915C101.951 11.0143 101.834 11.1182 101.689 11.2265C101.554 11.3259 101.346 11.4523 101.066 11.6058C100.795 11.7503 100.438 11.8723 99.9959 11.9716C99.5533 12.0619 99.0657 12.1071 98.5328 12.1071H98.3025C96.8124 12.1071 95.7015 11.7594 94.97 11.064C94.2475 10.3686 93.8863 9.48803 93.8863 8.42236V8.13787C93.8863 7.65019 93.963 7.20315 94.1166 6.79675C94.2791 6.38131 94.523 6.002 94.8481 5.65882C95.1732 5.31563 95.6203 5.0447 96.1892 4.84601C96.7582 4.64733 97.4265 4.54798 98.1941 4.54798H98.4515C99.9055 4.54798 101.098 4.9002 102.028 5.60463V1.89282Z" fill="white"/>
<path id="ArtWizard (Stroke)" fill-rule="evenodd" clip-rule="evenodd" d="M18.2745 11.9716H14.0615L13.2758 10.346H7.5184L6.74623 11.9716H2.84477L7.82997 1.89285H13.0048L18.2745 11.9716ZM8.50415 11.9056L7.73199 13.5312H0.333496L6.86147 0.333313H13.9493L17.0458 6.25574V3.12394H23.8225V3.16334C24.3031 3.02705 24.8013 2.96138 25.311 2.96138H25.4736C26.1332 2.96138 26.7806 3.05699 27.3825 3.29026V3.12394H28.7778V0.997103H33.539L33.2802 0.333313H40.9553L42.0388 3.48128L42.9941 0.333313H49.632L50.5923 3.40511L51.6353 0.333313H62.3203V3.12394H72.7318V3.47171C73.1361 3.32764 73.5885 3.22083 74.058 3.13641C74.7919 2.99689 75.6138 2.93429 76.5093 2.93429H77.268C78.1902 2.93429 79.0286 2.99127 79.7694 3.11742C80.442 3.22365 81.0825 3.37551 81.6021 3.61772C81.7062 3.6645 81.8086 3.71553 81.9088 3.77105V3.12394H88.6855V3.16334C89.1661 3.02705 89.6643 2.96138 90.174 2.96138H90.3365C91.0758 2.96138 91.7997 3.08147 92.4614 3.38083C93.0026 3.61817 93.4903 3.96149 93.8731 4.42931C94.383 3.9471 95.0046 3.60786 95.6751 3.3737C96.4476 3.10395 97.2971 2.98848 98.1942 2.98848H98.4516C99.154 2.98848 99.8292 3.05898 100.468 3.20841V0.333313H107.272V13.5312H100.482V13.4596C100.434 13.4712 100.386 13.4825 100.338 13.4933L100.323 13.4966L100.308 13.4997C99.7462 13.6143 99.1523 13.6666 98.5329 13.6666H98.3026C96.6005 13.6666 95.0294 13.2721 93.8956 12.1943L93.8885 12.1877C93.2456 11.5688 92.804 10.8422 92.5585 10.0361H88.7126V13.5312H79.7741C79.2737 13.5312 78.7163 13.4265 78.2161 13.1042C77.3121 13.5033 76.2745 13.6666 75.1818 13.6666H75.0327C74.2372 13.6666 73.4534 13.5728 72.7453 13.3228V13.5312H55.5165V9.21037L53.8323 13.5312H47.1816L46.234 10.6579L45.317 13.5312H42.2486L42.2255 13.6073L42.1993 13.5312H38.4246L36.9498 9.74772V13.5312H32.2745C31.3604 13.5312 30.3957 13.2817 29.6823 12.5184C29.0224 11.8123 28.8001 10.902 28.7794 10.0361H23.8496V13.5312H13.0831L12.2974 11.9056H8.50415ZM22.2901 11.9716V8.30047C22.2901 7.83085 22.4075 7.45154 22.6423 7.16254C22.8239 6.94727 23.0557 6.81217 23.3375 6.75726C23.434 6.73845 23.5365 6.72904 23.6447 6.72904C23.6591 6.72904 23.6733 6.72919 23.6874 6.72947C24.1171 6.73809 24.4325 6.87793 24.6337 7.14899C24.8504 7.41993 24.9588 7.77666 24.9588 8.21919V8.47657H28.5351V7.74505C28.5351 7.45243 28.5115 7.17698 28.4643 6.9187C28.4642 6.91814 28.4641 6.91759 28.464 6.91703C28.4428 6.80125 28.4168 6.68891 28.3861 6.58003C28.2868 6.21878 28.1287 5.88011 27.912 5.56402C27.7751 5.35872 27.5986 5.18222 27.3825 5.03453C27.2564 4.94834 27.1168 4.87197 26.9637 4.80541C26.5483 4.61575 26.0515 4.52092 25.4736 4.52092H25.311C24.7766 4.52092 24.2804 4.61865 23.8225 4.81411C23.8084 4.82015 23.7943 4.82628 23.7802 4.8325C23.4785 4.96596 23.2308 5.09756 23.0372 5.22729C22.9295 5.29947 22.8385 5.37108 22.7642 5.4421C22.5655 5.63176 22.3984 5.82593 22.263 6.02461V4.68348H18.6054V11.9716H22.2901ZM28.942 4.68348V6.9187H30.3374V9.89898C30.3374 11.2808 30.9831 11.9716 32.2745 11.9716H35.3903V9.70933H34.6046C34.3517 9.70933 34.1846 9.66417 34.1034 9.57386C34.0311 9.47452 33.995 9.30744 33.995 9.07263V6.9187H35.3903V4.68348H33.995V2.55664H30.3374V4.68348H28.942ZM39.4905 11.9716H44.1777L46.2097 5.60466L48.3095 11.9716H52.7663L56.6949 1.89285H52.7528L50.5311 8.43593L48.4856 1.89285H44.1506L42.1321 8.54431L39.8427 1.89285H35.562L39.4905 11.9716ZM57.076 11.9716H60.7607V4.68348H57.076V11.9716ZM60.7607 4.07388V1.89285H57.076V4.07388H60.7607ZM61.5947 6.83742H66.4444L61.5947 9.99381V11.9716H71.1858V9.73642H66.1735L71.1722 6.62067V4.68348H61.5947V6.83742ZM71.9317 8.57307C71.7503 8.85765 71.6596 9.20028 71.6596 9.60095V9.76352C71.6596 10.4228 71.9351 10.9782 72.486 11.4298C72.5664 11.4947 72.6529 11.5549 72.7453 11.6105C73.2959 11.9416 74.0584 12.1071 75.0327 12.1071H75.1818C75.923 12.1071 76.5716 12.0208 77.1276 11.8482C77.1541 11.84 77.1804 11.8315 77.2064 11.8229C77.7665 11.6378 78.2296 11.3623 78.5955 10.9963C78.6125 11.0979 78.6364 11.1916 78.6672 11.2774C78.8118 11.6793 79.109 11.9067 79.5589 11.9596C79.6271 11.9676 79.6988 11.9716 79.7741 11.9716H82.8357V9.8448H82.4428C82.2351 9.8448 82.1312 9.74094 82.1312 9.53322V6.83742C82.1312 6.59358 82.1087 6.38586 82.0635 6.21427C82.0412 6.10275 81.9896 5.98262 81.9088 5.85388C81.8587 5.77411 81.7974 5.69104 81.7248 5.60466C81.5352 5.36985 81.2778 5.1802 80.9527 5.0357C80.6275 4.88217 80.1489 4.75573 79.5167 4.65639C78.8845 4.54802 78.1349 4.49383 77.268 4.49383H76.5093C75.6785 4.49383 74.956 4.55253 74.3419 4.66994C73.7368 4.77831 73.2762 4.90926 72.9601 5.06279C72.8796 5.10301 72.8035 5.14634 72.7318 5.19276C72.6108 5.27102 72.5021 5.3581 72.4058 5.45398C72.3412 5.51831 72.2821 5.5866 72.2286 5.65885C72.0479 5.90269 71.9351 6.11492 71.8899 6.29555C71.8711 6.38933 71.8573 6.49163 71.8482 6.60246C71.8477 6.6085 71.8473 6.61457 71.8468 6.62067C71.8394 6.71806 71.8357 6.82192 71.8357 6.93225V7.01353H75.2495C75.2676 6.91418 75.2856 6.84193 75.3037 6.79678C75.3308 6.74259 75.3895 6.66583 75.4798 6.56648C75.5791 6.46714 75.7462 6.39489 75.981 6.34973C76.2249 6.29555 76.5274 6.26845 76.8886 6.26845H76.9428C76.9978 6.26845 77.0513 6.26892 77.1032 6.26986C77.4776 6.27662 77.7718 6.30776 77.9859 6.36328C77.9954 6.36538 78.0047 6.3675 78.0139 6.36963C78.0264 6.37253 78.0386 6.37545 78.0506 6.3784C78.2563 6.42913 78.3838 6.48731 78.433 6.55294C78.4962 6.62519 78.5278 6.7155 78.5278 6.82387C78.5278 6.87069 78.5203 6.91299 78.5052 6.95078C78.4705 7.03807 78.3956 7.10128 78.2806 7.14041C78.2341 7.15624 78.181 7.16813 78.1214 7.17609L74.6128 7.48766C73.5561 7.56894 72.7975 7.78569 72.3369 8.13791C72.3201 8.1507 72.3036 8.16369 72.2874 8.17688C72.1444 8.29331 72.0258 8.42537 71.9317 8.57307ZM76.0894 8.96426C75.7643 9.01844 75.534 9.09069 75.3985 9.181C75.263 9.27132 75.1953 9.40678 75.1953 9.58741V9.60095C75.1953 9.80867 75.2811 9.98478 75.4527 10.1293C75.6069 10.2526 75.8467 10.3234 76.1721 10.3414C76.2195 10.344 76.2687 10.3455 76.3197 10.3459C76.3248 10.346 76.3299 10.346 76.335 10.346C76.3389 10.346 76.3428 10.346 76.3468 10.346C76.3735 10.346 76.3999 10.3458 76.4262 10.3453C76.5466 10.343 76.6625 10.3354 76.774 10.3225C77.1105 10.2837 77.4062 10.1968 77.6611 10.0618C77.752 10.0136 77.8377 9.95937 77.9182 9.89898C78.3191 9.59612 78.5222 9.24932 78.5277 8.85859C78.5278 8.85318 78.5278 8.84776 78.5278 8.84234V8.53076L76.0894 8.96426ZM83.4683 11.9716H87.1531V8.30047C87.1531 7.83085 87.2705 7.45154 87.5053 7.16254C87.6869 6.94727 87.9186 6.81217 88.2005 6.75726C88.297 6.73845 88.3994 6.72904 88.5077 6.72904C88.5221 6.72904 88.5363 6.72919 88.5504 6.72947C88.9801 6.73809 89.2955 6.87793 89.4966 7.14899C89.7134 7.41993 89.8218 7.77666 89.8218 8.21919V8.47657H93.3981V7.74505C93.3981 7.4518 93.3744 7.1758 93.327 6.91703C93.3058 6.80125 93.2798 6.68891 93.2491 6.58003C93.2376 6.53807 93.2252 6.49642 93.2121 6.45508C93.2106 6.45041 93.2091 6.44575 93.2076 6.44109C93.1288 6.19632 93.0221 5.96227 92.8875 5.73891C92.8519 5.67987 92.8144 5.62157 92.775 5.56402C92.5582 5.2389 92.2421 4.98603 91.8267 4.80541C91.4113 4.61575 90.9145 4.52092 90.3365 4.52092H90.174C89.6396 4.52092 89.1434 4.61865 88.6855 4.81412C88.6714 4.82015 88.6573 4.82628 88.6432 4.8325C88.3415 4.96596 88.0938 5.09756 87.9002 5.22729C87.7924 5.29947 87.7014 5.37108 87.6272 5.4421C87.4285 5.63176 87.2614 5.82593 87.126 6.02461V4.68348H83.4683V11.9716ZM94.6614 5.87086C94.5591 5.9961 94.4667 6.12576 94.3842 6.25986C94.3823 6.26307 94.3803 6.26628 94.3783 6.26949C94.2754 6.43826 94.1881 6.61402 94.1166 6.79678C94.0053 7.0915 93.9343 7.40759 93.9037 7.74505C93.8921 7.87293 93.8863 8.00388 93.8863 8.13791V8.42239C93.8863 8.4405 93.8864 8.45857 93.8866 8.47657C93.8933 9.05082 94.0061 9.57067 94.225 10.0361C94.4032 10.4147 94.6515 10.7574 94.9701 11.064C95.7016 11.7594 96.8124 12.1071 98.3026 12.1071H98.5329C99.0657 12.1071 99.5534 12.0619 99.9959 11.9716C100.171 11.9322 100.333 11.8893 100.482 11.8428C100.708 11.772 100.903 11.6931 101.066 11.6059C101.346 11.4523 101.554 11.3259 101.689 11.2266C101.711 11.2106 101.731 11.1946 101.752 11.1788C101.868 11.0876 101.965 10.9997 102.041 10.915V11.9716H105.713V1.89285H102.028V5.60466C101.571 5.2588 101.051 4.99785 100.468 4.8218C99.864 4.63928 99.1917 4.54802 98.4516 4.54802H98.1942C97.4265 4.54802 96.7582 4.64736 96.1893 4.84605C95.6203 5.04473 95.1733 5.31567 94.8481 5.65885C94.7826 5.72805 94.7204 5.79872 94.6614 5.87086ZM98.0994 7.06771C97.7833 7.3838 97.6252 7.78117 97.6252 8.25983V8.32756C97.6252 8.78815 97.7923 9.19004 98.1265 9.53322C98.4696 9.8764 98.9889 10.048 99.6843 10.048H99.7385C100.189 10.048 100.576 9.98302 100.899 9.85306C101.101 9.77183 101.279 9.66522 101.432 9.53322C101.732 9.26741 101.918 8.97331 101.992 8.65092C102.016 8.54612 102.028 8.43834 102.028 8.32756V8.25983C102.028 7.83604 101.842 7.46196 101.469 7.13756C101.452 7.12321 101.436 7.10896 101.418 7.09481C101.35 7.03554 101.276 6.98138 101.198 6.93235C100.823 6.69747 100.336 6.58003 99.7385 6.58003H99.6708C98.9393 6.58003 98.4155 6.74259 98.0994 7.06771ZM100.408 8.35694C100.425 8.34151 100.438 8.32808 100.448 8.31684C100.442 8.31143 100.435 8.30562 100.428 8.29944L100.413 8.28744L100.399 8.2751C100.376 8.25505 100.227 8.13957 99.7385 8.13957H99.6708C99.4129 8.13957 99.2633 8.16913 99.1915 8.19141C99.1909 8.19159 99.1904 8.19177 99.1898 8.19195C99.1875 8.20445 99.1848 8.22622 99.1848 8.25983V8.32756C99.1848 8.34797 99.1866 8.35993 99.1876 8.36539C99.1881 8.368 99.1886 8.37001 99.1891 8.37165C99.1896 8.37333 99.1901 8.37462 99.1906 8.37574C99.1911 8.37691 99.1972 8.39255 99.2226 8.42216C99.259 8.44061 99.3849 8.48846 99.6843 8.48846H99.7385C100.213 8.48846 100.374 8.38362 100.408 8.35694ZM10.3497 4.35836L8.69697 7.82633H12.043L10.3497 4.35836Z" fill="#202227"/>
</g>
</svg>
